<svg width="28" height="32" viewBox="0 0 28 32" fill="none" xmlns="http://www.w3.org/2000/svg">
<path d="M2.26419 27.3639L0 24.5837L6.43998 19.3414C6.93454 18.9371 7.00981 18.4318 7.00981 18.1673C7.00981 17.9028 6.93669 17.3975 6.43998 16.9933L0 11.751L2.26419 8.9707L8.7042 14.213C9.90619 15.1914 10.5964 16.6342 10.5964 18.1695C10.5964 19.7047 9.90619 21.1454 8.7042 22.1259L2.26419 27.3682V27.3639Z" fill="#E0E0E0"/>
<path d="M25.4008 27.3638L18.9608 22.1215C17.7588 21.1432 17.0686 19.7003 17.0686 18.1651C17.0686 16.6298 17.7588 15.1891 18.9608 14.2086L25.4008 8.96631L27.665 11.7466L21.225 16.9889C20.7305 17.3931 20.6552 17.8984 20.6552 18.1629C20.6552 18.4274 20.7283 18.9349 21.225 19.337L27.665 24.5793L25.4008 27.3595V27.3638Z" fill="#E0E0E0"/>
<path d="M13.8326 14.9292C12.2973 14.9292 10.8566 14.239 9.8761 13.037L4.63379 6.59698L7.41407 4.33276L12.6564 10.7728C13.0606 11.2673 13.5659 11.3426 13.8304 11.3426C14.0949 11.3426 14.6023 11.2695 15.0044 10.7728L20.2467 4.33276L23.027 6.59698L17.7847 13.037C16.8064 14.239 15.3635 14.9292 13.8283 14.9292H13.8326Z" fill="#E0E0E0"/>
<path d="M20.2489 32.0002L15.0066 25.5602C14.6024 25.0635 14.0971 24.9904 13.8326 24.9904C13.5681 24.9904 13.0628 25.0635 12.6586 25.5602L7.41627 32.0002L4.63599 29.736L9.87829 23.296C10.8567 22.094 12.2995 21.4038 13.8348 21.4038C15.37 21.4038 16.8107 22.094 17.7912 23.296L23.0335 29.736L20.2532 32.0002H20.2489Z" fill="#E0E0E0"/>
<path d="M13.8325 5.37992C15.3182 5.37992 16.5225 4.17559 16.5225 2.68996C16.5225 1.20434 15.3182 0 13.8325 0C12.3469 0 11.1426 1.20434 11.1426 2.68996C11.1426 4.17559 12.3469 5.37992 13.8325 5.37992Z" fill="#00AEEF"/>
</svg>
