<svg width="140" height="56" viewBox="0 0 140 56" fill="none" xmlns="http://www.w3.org/2000/svg">
<rect x="0.5" y="0.5" width="138.999" height="54.9997" stroke="black" stroke-dasharray="5 5"/>
<path d="M55.4043 31.7852V34H48.9443V31.7852H55.4043ZM49.9199 21.2031V34H47.0547V21.2031H49.9199ZM66.9004 27.3203V27.8916C66.9004 28.8643 66.7656 29.7373 66.4961 30.5107C66.2324 31.2842 65.8545 31.9434 65.3623 32.4883C64.876 33.0332 64.2959 33.4521 63.6221 33.7451C62.9541 34.0322 62.2129 34.1758 61.3984 34.1758C60.584 34.1758 59.8398 34.0322 59.166 33.7451C58.4922 33.4521 57.9062 33.0332 57.4082 32.4883C56.916 31.9434 56.5352 31.2842 56.2656 30.5107C55.9961 29.7373 55.8613 28.8643 55.8613 27.8916V27.3203C55.8613 26.3477 55.9961 25.4746 56.2656 24.7012C56.5352 23.9219 56.9131 23.2598 57.3994 22.7148C57.8916 22.1699 58.4746 21.7539 59.1484 21.4668C59.8223 21.1738 60.5664 21.0273 61.3809 21.0273C62.1953 21.0273 62.9395 21.1738 63.6133 21.4668C64.2871 21.7539 64.8672 22.1699 65.3535 22.7148C65.8457 23.2598 66.2266 23.9219 66.4961 24.7012C66.7656 25.4746 66.9004 26.3477 66.9004 27.3203ZM64.0088 27.8916V27.3027C64.0088 26.6523 63.9502 26.0781 63.833 25.5801C63.7158 25.0762 63.5459 24.6543 63.3232 24.3145C63.1006 23.9746 62.8252 23.7197 62.4971 23.5498C62.1689 23.374 61.7969 23.2861 61.3809 23.2861C60.9473 23.2861 60.5693 23.374 60.2471 23.5498C59.9248 23.7197 59.6523 23.9746 59.4297 24.3145C59.2129 24.6543 59.0459 25.0762 58.9287 25.5801C58.8174 26.0781 58.7617 26.6523 58.7617 27.3027V27.8916C58.7617 28.5361 58.8174 29.1104 58.9287 29.6143C59.0459 30.1123 59.2158 30.5342 59.4385 30.8799C59.6611 31.2256 59.9336 31.4863 60.2559 31.6621C60.584 31.8379 60.9648 31.9258 61.3984 31.9258C61.8145 31.9258 62.1836 31.8379 62.5059 31.6621C62.834 31.4863 63.1094 31.2256 63.332 30.8799C63.5547 30.5342 63.7217 30.1123 63.833 29.6143C63.9502 29.1104 64.0088 28.5361 64.0088 27.8916ZM78.9678 27.2412V32.4004C78.7568 32.6406 78.4346 32.8984 78.001 33.1738C77.5732 33.4492 77.0254 33.6865 76.3574 33.8857C75.6895 34.0791 74.8926 34.1758 73.9668 34.1758C73.1289 34.1758 72.3672 34.041 71.6816 33.7715C70.9961 33.4961 70.4072 33.0947 69.915 32.5674C69.4229 32.0342 69.042 31.3838 68.7725 30.6162C68.5088 29.8486 68.377 28.9697 68.377 27.9795V27.2236C68.377 26.2334 68.5088 25.3545 68.7725 24.5869C69.0361 23.8193 69.4082 23.1719 69.8887 22.6445C70.3691 22.1113 70.9404 21.707 71.6025 21.4316C72.2646 21.1562 72.9971 21.0186 73.7998 21.0186C74.9424 21.0186 75.877 21.2031 76.6035 21.5723C77.3301 21.9355 77.8809 22.4395 78.2559 23.084C78.6367 23.7285 78.8711 24.4697 78.959 25.3076H76.1992C76.1406 24.8799 76.0234 24.5107 75.8477 24.2002C75.6777 23.8896 75.4346 23.6523 75.1182 23.4883C74.8018 23.3184 74.3916 23.2334 73.8877 23.2334C73.4834 23.2334 73.1172 23.3184 72.7891 23.4883C72.4668 23.6523 72.1943 23.9014 71.9717 24.2354C71.749 24.5693 71.5791 24.9854 71.4619 25.4834C71.3447 25.9756 71.2861 26.5498 71.2861 27.2061V27.9795C71.2861 28.6357 71.3447 29.2129 71.4619 29.7109C71.585 30.209 71.7637 30.625 71.998 30.959C72.2324 31.2871 72.5283 31.5361 72.8857 31.7061C73.249 31.876 73.6709 31.9609 74.1514 31.9609C74.5264 31.9609 74.8428 31.9316 75.1006 31.873C75.3584 31.8086 75.5693 31.7295 75.7334 31.6357C75.8975 31.5361 76.0205 31.4453 76.1025 31.3633V29.2363H73.8262V27.2412H78.9678ZM91.5977 27.3203V27.8916C91.5977 28.8643 91.4629 29.7373 91.1934 30.5107C90.9297 31.2842 90.5518 31.9434 90.0596 32.4883C89.5732 33.0332 88.9932 33.4521 88.3193 33.7451C87.6514 34.0322 86.9102 34.1758 86.0957 34.1758C85.2812 34.1758 84.5371 34.0322 83.8633 33.7451C83.1895 33.4521 82.6035 33.0332 82.1055 32.4883C81.6133 31.9434 81.2324 31.2842 80.9629 30.5107C80.6934 29.7373 80.5586 28.8643 80.5586 27.8916V27.3203C80.5586 26.3477 80.6934 25.4746 80.9629 24.7012C81.2324 23.9219 81.6104 23.2598 82.0967 22.7148C82.5889 22.1699 83.1719 21.7539 83.8457 21.4668C84.5195 21.1738 85.2637 21.0273 86.0781 21.0273C86.8926 21.0273 87.6367 21.1738 88.3105 21.4668C88.9844 21.7539 89.5645 22.1699 90.0508 22.7148C90.543 23.2598 90.9238 23.9219 91.1934 24.7012C91.4629 25.4746 91.5977 26.3477 91.5977 27.3203ZM88.7061 27.8916V27.3027C88.7061 26.6523 88.6475 26.0781 88.5303 25.5801C88.4131 25.0762 88.2432 24.6543 88.0205 24.3145C87.7979 23.9746 87.5225 23.7197 87.1943 23.5498C86.8662 23.374 86.4941 23.2861 86.0781 23.2861C85.6445 23.2861 85.2666 23.374 84.9443 23.5498C84.6221 23.7197 84.3496 23.9746 84.127 24.3145C83.9102 24.6543 83.7432 25.0762 83.626 25.5801C83.5146 26.0781 83.459 26.6523 83.459 27.3027V27.8916C83.459 28.5361 83.5146 29.1104 83.626 29.6143C83.7432 30.1123 83.9131 30.5342 84.1357 30.8799C84.3584 31.2256 84.6309 31.4863 84.9531 31.6621C85.2812 31.8379 85.6621 31.9258 86.0957 31.9258C86.5117 31.9258 86.8809 31.8379 87.2031 31.6621C87.5312 31.4863 87.8066 31.2256 88.0293 30.8799C88.252 30.5342 88.4189 30.1123 88.5303 29.6143C88.6475 29.1104 88.7061 28.5361 88.7061 27.8916Z" fill="black"/>
</svg>
