<?xml version="1.0" encoding="utf-8"?>
<!-- Generator: Adobe Illustrator 28.0.0, SVG Export Plug-In . SVG Version: 6.00 Build 0)  -->
<svg version="1.1" id="Layer_1" xmlns="http://www.w3.org/2000/svg" xmlns:xlink="http://www.w3.org/1999/xlink" x="0px" y="0px"
	 width="38px" height="25px" viewBox="0 0 38 25" style="enable-background:new 0 0 38 25;" xml:space="preserve">
<style type="text/css">
	.st0{fill:#FFFFFF;}
	.st1{fill:#D9D9D9;}
	.st2{fill-rule:evenodd;clip-rule:evenodd;}
	.st3{fill:#1434CB;}
	.st4{fill:#FF5F00;}
	.st5{fill:#EB001B;}
	.st6{fill:#F79E1B;}
	.st7{fill-rule:evenodd;clip-rule:evenodd;fill:#3C4043;}
	.st8{fill:#4285F4;}
	.st9{fill:#34A853;}
	.st10{fill:#FBBC04;}
	.st11{fill:#EA4335;}
	.st12{fill:#5A31F4;}
</style>
<g>
	<path class="st12" d="M3.37479,24.24767c-1.51562,0-2.74902-1.16064-2.74902-2.58691V3.33898
		c0-1.42627,1.2334-2.58643,2.74902-2.58643h31.25049c1.51562,0,2.74902,1.16016,2.74902,2.58643v18.32178
		c0,1.42627-1.2334,2.58691-2.74902,2.58691H3.37479z"/>
	<path class="st1" d="M34.62529,1.0053c1.37644,0,2.49626,1.04691,2.49626,2.33374v18.32191
		c0,1.28683-1.11982,2.33374-2.49626,2.33374H3.37471c-1.37644,0-2.49626-1.04691-2.49626-2.33374V3.33904
		c0-1.28683,1.11982-2.33374,2.49626-2.33374H34.62529 M34.62529,0.5H3.37471C1.717,0.5,0.37315,1.77108,0.37315,3.33904v18.32191
		C0.37315,23.22892,1.717,24.5,3.37471,24.5h31.25058c1.65771,0,3.00156-1.27108,3.00156-2.83904V3.33904
		C37.62685,1.77108,36.283,0.5,34.62529,0.5L34.62529,0.5z"/>
</g>
<path class="st0" d="M21.20464,11.56119c0,1.5401-1.08,2.6396-2.58899,2.6396h-1.42101c-0.01601,0-0.032,0.0031-0.04601,0.0091
	c-0.015,0.006-0.028,0.0148-0.039,0.0259c-0.01099,0.0112-0.01999,0.0244-0.02599,0.0389c-0.00601,0.0145-0.009,0.0301-0.009,0.0458
	v2.0241c0,0.0317-0.01201,0.062-0.03401,0.0845c-0.02299,0.0224-0.05299,0.0351-0.08499,0.0352h-0.994
	c-0.024-0.0001-0.047-0.0072-0.067-0.0203c-0.019-0.0132-0.035-0.0319-0.04399-0.0537c-0.00601-0.0143-0.009-0.0296-0.009-0.0451
	V9.04086c0-0.0157,0.00299-0.03125,0.009-0.04577c0.006-0.01452,0.01399-0.02773,0.026-0.03885
	c0.01099-0.01113,0.02399-0.01995,0.03799-0.02598c0.015-0.00602,0.03-0.00912,0.04601-0.00912h2.661
	C20.12464,8.91941,21.20464,10.01882,21.20464,11.56119z M19.96365,11.56119c0-0.8854-0.604-1.53254-1.423-1.53254h-1.34599
	c-0.01601,0-0.032,0.0031-0.04601,0.00912c-0.015,0.00602-0.028,0.01485-0.039,0.02598
	c-0.01099,0.01112-0.01999,0.02432-0.02599,0.03884c-0.00601,0.01452-0.009,0.03008-0.009,0.04577v2.81883
	c0,0.0316,0.013,0.0619,0.03499,0.0842c0.02301,0.0224,0.05301,0.0349,0.08501,0.0349h1.34599
	C19.35964,13.09209,19.96365,12.44439,19.96365,11.56119z M21.49964,15.06299c-0.01099-0.2362,0.03801-0.4712,0.14201-0.6837
	c0.103-0.2125,0.25899-0.3958,0.45099-0.5331c0.388-0.292,0.99501-0.443,1.88501-0.4742l0.94899-0.0335v-0.28
	c0-0.5609-0.37599-0.7981-0.98-0.7981s-0.98599,0.214-1.07401,0.5639c-0.008,0.0246-0.02299,0.0462-0.043,0.0612
	c-0.021,0.0151-0.04599,0.0229-0.07199,0.0221h-0.937c-0.01701,0.0005-0.03401-0.0029-0.05-0.0098
	c-0.01601-0.0069-0.03-0.0172-0.041-0.0302c-0.01201-0.0129-0.02-0.0283-0.02501-0.0449c-0.00499-0.0165-0.006-0.034-0.00299-0.051
	c0.13899-0.8293,0.82899-1.4597,2.28799-1.4597c1.552,0,2.11301,0.7229,2.11301,2.1028v2.9298
	c-0.00101,0.032-0.01401,0.0625-0.03601,0.085c-0.02299,0.0224-0.054,0.0349-0.086,0.0347h-0.944
	c-0.032,0-0.062-0.0125-0.08499-0.0347c-0.011-0.0111-0.019-0.0242-0.02501-0.0387c-0.006-0.0145-0.00899-0.03-0.00899-0.0457
	v-0.2192c0-0.0181-0.005-0.0359-0.01501-0.051c-0.00999-0.0151-0.02399-0.0269-0.04099-0.0337
	c-0.01701-0.0068-0.035-0.0084-0.05301-0.0045c-0.01801,0.0038-0.034,0.013-0.04601,0.0262c-0.284,0.3082-0.741,0.5309-1.474,0.5309
	C22.21066,16.59389,21.49964,16.03289,21.49964,15.06299z M24.92664,14.42799v-0.2272l-1.22899,0.0647
	c-0.647,0.033-1.02301,0.3019-1.02301,0.7547c0,0.4095,0.345,0.6362,0.948,0.6362
	C24.44265,15.65639,24.92664,15.21399,24.92664,14.42799z M27.05065,18.67819v-0.849c0-0.0178,0.004-0.0353,0.01199-0.0514
	c0.00801-0.016,0.019-0.0302,0.033-0.0414c0.01399-0.0113,0.03-0.0194,0.047-0.0237c0.017-0.0044,0.035-0.0049,0.05301-0.0015
	c0.144,0.0272,0.29199,0.0411,0.439,0.0417c0.254,0.0123,0.504-0.0608,0.711-0.2076c0.207-0.1468,0.35899-0.3588,0.431-0.6021
	l0.062-0.1955c0.009-0.0262,0.009-0.0547,0-0.0809l-1.968-5.0547c-0.00699-0.0183-0.00999-0.0381-0.008-0.0576
	c0.002-0.0195,0.009-0.0382,0.02-0.0545s0.026-0.0296,0.04399-0.0389c0.017-0.0093,0.03601-0.0142,0.056-0.0144h0.95401
	c0.024,0.0003,0.04799,0.0079,0.06799,0.0218s0.036,0.0335,0.04401,0.0563l1.33699,3.5648
	c0.00801,0.0237,0.024,0.0442,0.04401,0.0587c0.021,0.0145,0.045,0.0223,0.06999,0.0223c0.02501,0,0.05-0.0078,0.07001-0.0223
	c0.021-0.0145,0.036-0.035,0.045-0.0587l1.161-3.555c0.00801-0.0243,0.02301-0.0454,0.04401-0.0604
	c0.021-0.0149,0.04601-0.0229,0.071-0.0228h0.987c0.02,0.0001,0.04001,0.005,0.05701,0.0142
	c0.01799,0.0093,0.03299,0.0227,0.04399,0.039c0.011,0.0163,0.01801,0.0351,0.02,0.0547c0.00301,0.0196,0,0.0395-0.007,0.058
	l-2.105,5.6133c-0.48401,1.3048-1.315,1.6385-2.23,1.6385c-0.17401,0.0046-0.347-0.0162-0.515-0.0619
	c-0.028-0.0074-0.052-0.0244-0.069-0.048C27.05566,18.73559,27.04865,18.70689,27.05065,18.67819z M9.44965,8.50011
	c-1.254-0.00893-2.464,0.46296-3.38,1.3186c-0.039,0.0359-0.064,0.08509-0.069,0.13801
	c-0.005,0.05291,0.00999,0.10577,0.04201,0.14827l0.56699,0.775c0.01901,0.0258,0.043,0.0472,0.07001,0.0628
	c0.028,0.0156,0.05901,0.025,0.09,0.0275c0.032,0.0025,0.063-0.002,0.093-0.0131s0.05701-0.0286,0.07899-0.0512
	c0.32901-0.3295,0.72101-0.58993,1.153-0.76619c0.431-0.17626,0.89301-0.26477,1.35901-0.26036
	c1.946,0,2.96199,1.46435,2.96199,2.91015c0,1.5719-1.06799,2.6777-2.60199,2.6997c-1.186,0-2.07901-0.786-2.07901-1.8241
	c0.00101-0.2622,0.06001-0.521,0.17401-0.7575c0.11299-0.2365,0.27699-0.4449,0.481-0.6102
	c0.043-0.036,0.06999-0.0874,0.07599-0.1432c0.005-0.0558-0.011-0.1116-0.04599-0.1553l-0.597-0.753
	c-0.01801-0.0227-0.04001-0.0417-0.06601-0.0556c-0.02499-0.014-0.05299-0.0227-0.082-0.0257
	c-0.02899-0.0029-0.058-0.0001-0.086,0.0084c-0.028,0.0085-0.05299,0.0225-0.076,0.0411c-0.366,0.2951-0.661,0.6683-0.86499,1.0924
	c-0.203,0.4242-0.308,0.8884-0.30901,1.3586c0,1.7871,1.519,3.1889,3.464,3.2005h0.026c2.31-0.0301,3.981-1.7408,3.981-4.079
	C13.80965,10.71049,12.27966,8.50011,9.44965,8.50011L9.44965,8.50011z"/>
</svg>
