<?xml version="1.0" encoding="utf-8"?>
<!-- Generator: Adobe Illustrator 28.0.0, SVG Export Plug-In . SVG Version: 6.00 Build 0)  -->
<svg version="1.1" id="Layer_1" xmlns="http://www.w3.org/2000/svg" xmlns:xlink="http://www.w3.org/1999/xlink" x="0px" y="0px"
	 width="38px" height="25px" viewBox="0 0 38 25" style="enable-background:new 0 0 38 25;" xml:space="preserve">
<style type="text/css">
	.st0{fill:#FFFFFF;}
	.st1{fill:#D9D9D9;}
	.st2{fill-rule:evenodd;clip-rule:evenodd;}
	.st3{fill:#1434CB;}
	.st4{fill:#FF5F00;}
	.st5{fill:#EB001B;}
	.st6{fill:#F79E1B;}
	.st7{fill-rule:evenodd;clip-rule:evenodd;fill:#3C4043;}
	.st8{fill:#4285F4;}
	.st9{fill:#34A853;}
	.st10{fill:#FBBC04;}
	.st11{fill:#EA4335;}
	.st12{fill:#5A31F4;}
</style>
<g>
	<path class="st0" d="M3.37479,24.24767c-1.51562,0-2.74902-1.16064-2.74902-2.58691V3.33898
		c0-1.42627,1.2334-2.58643,2.74902-2.58643h31.25049c1.51562,0,2.74902,1.16016,2.74902,2.58643v18.32178
		c0,1.42627-1.2334,2.58691-2.74902,2.58691H3.37479z"/>
	<path class="st1" d="M34.62529,1.0053c1.37644,0,2.49626,1.04691,2.49626,2.33374v18.32191
		c0,1.28683-1.11982,2.33374-2.49626,2.33374H3.37471c-1.37644,0-2.49626-1.04691-2.49626-2.33374V3.33904
		c0-1.28683,1.11982-2.33374,2.49626-2.33374H34.62529 M34.62529,0.5H3.37471C1.717,0.5,0.37315,1.77108,0.37315,3.33904v18.32191
		C0.37315,23.22892,1.717,24.5,3.37471,24.5h31.25058c1.65771,0,3.00156-1.27108,3.00156-2.83904V3.33904
		C37.62685,1.77108,36.283,0.5,34.62529,0.5L34.62529,0.5z"/>
</g>
<path class="st7" d="M28.99764,14.81929h0.01701l1.459-3.6631h1.02699l-3.155,7.3437h-0.972l1.172-2.5683l-2.069-4.7754h1.026
	L28.99764,14.81929z M24.06165,10.98919c0.698,0.0001,1.248,0.1909,1.653,0.5654c0.40399,0.3746,0.60399,0.8977,0.60399,1.5577
	v3.1464h-0.903v-0.708h-0.041c-0.39299,0.5826-0.90799,0.8739-1.55899,0.8741c-0.55099,0-1.02-0.1661-1.38901-0.4991
	c-0.364-0.3092-0.569-0.7674-0.55699-1.249c0-0.5292,0.19899-0.9456,0.592-1.2607c0.392-0.3152,0.92-0.4698,1.577-0.4698
	c0.56201,0.0001,1.01901,0.1066,1.38301,0.3086v-0.2197c0-0.327-0.14101-0.6365-0.38701-0.8506
	c-0.252-0.2258-0.57399-0.3505-0.90799-0.3506c-0.528,0-0.94501,0.2259-1.24901,0.6778l-0.832-0.5293
	C22.49065,11.32239,23.16564,10.98919,24.06165,10.98919z M19.58965,8.80072c0.603-0.01188,1.19,0.22028,1.618,0.64843
	c0.855,0.80872,0.908,2.17074,0.105,3.04494l-0.105,0.1074c-0.44,0.4222-0.98,0.6357-1.618,0.6358h-1.56v3.0214h-0.94301V8.80072
	H19.58965z M24.18465,13.71869c-0.38101,0-0.703,0.096-0.961,0.2803c-0.25201,0.1843-0.38101,0.4158-0.38101,0.6953
	c0,0.2497,0.11801,0.4823,0.311,0.625c0.211,0.1662,0.46899,0.2549,0.73199,0.249c0.399,0,0.78-0.1602,1.061-0.4453
	c0.311-0.2973,0.47-0.6485,0.47-1.0527C25.12365,13.83239,24.71265,13.71269,24.18465,13.71869z M18.02966,12.32119h1.58299
	c0.35201,0.0119,0.692-0.1301,0.933-0.3857c0.492-0.5173,0.48-1.3501-0.03-1.84962c-0.24001-0.23787-0.563-0.36914-0.903-0.36914
	h-1.58299V12.32119z"/>
<path class="st8" d="M14.77164,12.58309c0-0.2914-0.02299-0.5828-0.06999-0.8683h-3.98001v1.6473h2.28001
	c-0.09401,0.5293-0.39801,1.005-0.84401,1.3023v1.0705h1.36C14.31464,14.99149,14.77164,13.89139,14.77164,12.58309z"/>
<path class="st9" d="M10.72164,16.76959c1.13701,0,2.09901-0.3806,2.79601-1.0347l-1.36-1.0704
	c-0.381,0.2616-0.867,0.4103-1.436,0.4103c-1.10199,0-2.034-0.7553-2.368-1.7662h-1.401v1.1061
	C7.66766,15.85979,9.12765,16.76959,10.72164,16.76959z"/>
<path class="st10" d="M8.35365,13.30879c-0.17599-0.5292-0.17599-1.1061,0-1.6413v-1.1001h-1.401
	c-0.60399,1.2072-0.60399,2.6344,0,3.8416L8.35365,13.30879z"/>
<path class="st11" d="M10.72164,9.90113c0.604-0.01189,1.18401,0.22003,1.61801,0.64226l1.207-1.22504
	c-0.767-0.72551-1.776-1.12394-2.82501-1.11205c-1.59399,0-3.05399,0.9158-3.769,2.36089l1.401,1.1061
	C8.68764,10.65639,9.61965,9.90113,10.72164,9.90113z"/>
</svg>
