<svg width="38" height="32" viewBox="0 0 38 32" fill="none" xmlns="http://www.w3.org/2000/svg">
<path d="M28.8575 5.8833L23.1648 12.8752C22.7733 13.3583 22.2825 13.4295 22.0232 13.4295C21.7639 13.4295 21.2757 13.3583 20.8816 12.8752L20.2358 12.0819L20.2434 12.0768L14.5508 5.08495C13.455 3.73996 11.8405 2.96704 10.1217 2.96704C8.40299 2.96704 6.7885 3.73996 5.69268 5.08495L0 12.0768L3.28746 14.7541L8.98014 7.76221C9.37168 7.27913 9.86239 7.20794 10.1217 7.20794C10.3811 7.20794 10.8692 7.27913 11.2633 7.76221L11.9091 8.55547L11.9015 8.56056L17.5942 15.5525C18.69 16.8974 20.3045 17.6704 22.0232 17.6704C23.7419 17.6704 25.3564 16.8974 26.4523 15.5525L32.1449 8.56056L28.8575 5.8833Z" fill="#E0E0E0"/>
<path d="M34.4509 6.36135C36.2076 6.36135 37.6316 4.93732 37.6316 3.18068C37.6316 1.42404 36.2076 0 34.4509 0C32.6943 0 31.2703 1.42404 31.2703 3.18068C31.2703 4.93732 32.6943 6.36135 34.4509 6.36135Z" fill="#00AEEF"/>
<path d="M36.4189 20.5867H0.147461V24.8276H36.4189V20.5867Z" fill="#E0E0E0"/>
<path d="M36.4189 27.759H0.147461V31.9999H36.4189V27.759Z" fill="#E0E0E0"/>
</svg>
