<svg width="48" height="32" viewBox="0 0 48 32" fill="none" xmlns="http://www.w3.org/2000/svg">
<path d="M26.6358 31.9972L25.24 18.3692C24.9991 16.0208 25.8078 13.725 27.4611 12.0717C29.1144 10.4184 31.4102 9.6097 33.7586 9.85063L47.3867 11.2464L46.9159 15.8408L33.2878 14.445C32.3102 14.3453 31.4019 14.661 30.7289 15.3367C30.0532 16.0125 29.7375 16.9208 29.8372 17.8956L31.2329 31.5237L26.6386 31.9945L26.6358 31.9972Z" fill="#E0E0E0"/>
<path d="M20.7481 31.9971L16.1537 31.5264L17.5495 17.8983C17.6492 16.9235 17.3334 16.0152 16.6577 15.3394C15.982 14.6637 15.0736 14.348 14.0988 14.4477L0.470778 15.8435L0 11.2491L13.628 9.85332C15.9737 9.61238 18.2722 10.421 19.9256 12.0743C21.5789 13.7277 22.3875 16.0207 22.1466 18.3719L20.7508 31.9999L20.7481 31.9971Z" fill="#E0E0E0"/>
<path d="M23.7943 6.92895C25.7077 6.92895 27.2588 5.37785 27.2588 3.46447C27.2588 1.5511 25.7077 0 23.7943 0C21.8809 0 20.3298 1.5511 20.3298 3.46447C20.3298 5.37785 21.8809 6.92895 23.7943 6.92895Z" fill="#00AEEF"/>
</svg>
