<svg width="21" height="25" viewBox="0 0 21 25" fill="none" xmlns="http://www.w3.org/2000/svg">
<g clip-path="url(#clip0_14741_5409)">
<path d="M10.4607 12.037C8.8974 12.037 7.33411 11.4496 6.14427 10.2761C4.9907 9.13849 4.35571 7.62808 4.35571 6.01926C4.35571 4.41045 4.9907 2.90004 6.14427 1.76239C7.29632 0.62623 8.82936 0 10.4607 0C12.092 0 13.6235 0.62623 14.7771 1.76388C17.1568 4.11075 17.1568 7.93076 14.7771 10.2776C13.5872 11.4511 12.024 12.0385 10.4607 12.0385V12.037ZM10.4607 2.4751C9.50064 2.4751 8.59805 2.84338 7.9177 3.51434C7.23735 4.1853 6.86543 5.07396 6.86543 6.02076C6.86543 6.96756 7.23887 7.8577 7.9177 8.52717C9.31921 9.90935 11.6006 9.90935 13.0021 8.52717C14.4037 7.14499 14.4037 4.89503 13.0021 3.51285C12.3233 2.84338 11.4207 2.47361 10.4607 2.47361V2.4751Z" fill="white"/>
<path d="M18.8244 25L13.3589 18.3799C12.6362 17.5047 11.5809 17.0037 10.4606 17.0037C9.34034 17.0037 8.28354 17.5047 7.56237 18.3799L2.17706 24.9031L0.00146484 23.1556L5.38678 16.6324C6.64466 15.1101 8.49369 14.2363 10.4622 14.2363C12.4306 14.2363 14.2797 15.1101 15.5375 16.6324L21.003 23.2525L18.8274 25H18.8244Z" fill="white"/>
</g>
<defs>
<clipPath id="clip0_14741_5409">
<rect width="21" height="25" fill="white"/>
</clipPath>
</defs>
</svg>
