<svg width="20" height="25" viewBox="0 0 20 25" fill="none" xmlns="http://www.w3.org/2000/svg">
<g clip-path="url(#clip0_14741_5412)">
<path d="M14.7657 7.45874L10.8003 2.87671C10.5644 2.60457 10.2342 2.45371 9.87258 2.45371C9.50938 2.45371 9.18076 2.60457 8.94334 2.87671L4.97793 7.45874L2.95435 5.90871L6.91975 1.32669C7.65089 0.483642 8.72636 0 9.87258 0C11.0188 0 12.0943 0.483642 12.8238 1.32817L16.7893 5.91019L14.7657 7.46021V7.45874Z" fill="white"/>
<path d="M16.1934 25C16.173 25 16.1525 25 16.1321 25L10 24.9098L3.86796 25C2.71544 25.0207 1.62582 24.5533 0.888396 23.7295C0.165126 22.919 -0.136761 21.8586 0.0582073 20.8084L1.34752 8.78247H18.6525L19.9419 20.807C20.1368 21.8571 19.8349 22.919 19.1117 23.728C18.3884 24.5385 17.3271 25 16.1934 25ZM10.1069 22.4561L16.173 22.5448C16.5441 22.5478 16.8805 22.4102 17.1148 22.1484C17.3475 21.8867 17.4371 21.5539 17.368 21.2078L17.3507 21.1013L16.2925 11.2362H3.70758L2.64311 21.1545L2.63211 21.2078C2.56135 21.5539 2.65255 21.8881 2.88525 22.1484C3.11796 22.4087 3.45758 22.5478 3.82708 22.5448L9.89311 22.4516H10H10.1069V22.4546V22.4561Z" fill="white"/>
<path d="M10 18.7319C11.0812 18.7319 11.9576 17.9074 11.9576 16.8905C11.9576 15.8735 11.0812 15.0491 10 15.0491C8.9189 15.0491 8.04248 15.8735 8.04248 16.8905C8.04248 17.9074 8.9189 18.7319 10 18.7319Z" fill="#00AEEF"/>
</g>
<defs>
<clipPath id="clip0_14741_5412">
<rect width="20" height="25" fill="white"/>
</clipPath>
</defs>
</svg>
