<svg width="32" height="32" viewBox="0 0 32 32" fill="none" xmlns="http://www.w3.org/2000/svg">
<path d="M18.4949 16.0803C18.4949 17.4148 17.4126 18.4949 16.0803 18.4949C14.7481 18.4949 13.6658 17.4126 13.6658 16.0803C13.6658 14.7481 14.7481 13.6658 16.0803 13.6658C17.4126 13.6658 18.4949 14.7481 18.4949 16.0803Z" fill="#00ADF0"/>
<path d="M20.5901 30.7852L17.6083 32.0001L14.6852 24.8194C14.5113 24.3913 14.1788 24.0848 13.7507 23.9523C13.3225 23.8219 12.8748 23.8914 12.4923 24.1478L6.05493 28.4662L4.25977 25.7909L10.6993 21.4725C11.8838 20.6771 13.3421 20.4575 14.6939 20.8705C16.0457 21.2834 17.1302 22.2788 17.6692 23.6023L20.5923 30.783L20.5901 30.7852Z" fill="#E0E0E0"/>
<path d="M11.4099 1.21489L14.3917 0L17.3148 7.18066C17.4887 7.6088 17.8212 7.91524 18.2493 8.04781C18.6775 8.17821 19.1252 8.10867 19.5077 7.85221L25.9472 3.53382L27.7402 6.20918L21.3007 10.5276C20.1162 11.323 18.6579 11.5425 17.3061 11.1296C15.9543 10.7167 14.8698 9.72127 14.3308 8.39772L11.4077 1.21706L11.4099 1.21489Z" fill="#E0E0E0"/>
<path d="M30.7852 11.4099L32.0001 14.3917L24.8194 17.3148C24.3913 17.4887 24.0848 17.8212 23.9523 18.2493C23.8219 18.6775 23.8914 19.1252 24.1479 19.5077L28.4662 25.9472L25.7909 27.7402L21.4725 21.3007C20.6771 20.114 20.4575 18.6579 20.8705 17.3061C21.2834 15.9543 22.2788 14.8698 23.6023 14.3308L30.783 11.4077L30.7852 11.4099Z" fill="#E0E0E0"/>
<path d="M1.21489 20.5901L0 17.6083L7.18066 14.6852C7.6088 14.5113 7.91524 14.1788 8.04781 13.7507C8.17821 13.3225 8.10867 12.8748 7.85222 12.4923L3.53382 6.05276L6.20918 4.25977L10.5276 10.6993C11.323 11.8838 11.5425 13.3421 11.1296 14.6939C10.7167 16.0457 9.72128 17.1302 8.39772 17.6692L1.21706 20.5923L1.21489 20.5901Z" fill="#E0E0E0"/>
</svg>
