<svg width="31" height="32" viewBox="0 0 31 32" fill="none" xmlns="http://www.w3.org/2000/svg">
<path d="M27.877 16.7559L18.5178 5.26087C17.7383 4.30558 16.6005 3.75583 15.3951 3.75583C14.1897 3.75583 13.0519 4.30332 12.2724 5.26087L2.9132 16.7559L0 14.3835L9.35917 2.88841C10.8552 1.05217 13.0542 0 15.3951 0C17.736 0 19.9372 1.05217 21.431 2.88841L30.7902 14.3835L27.877 16.7559Z" fill="#E0E0E0"/>
<path d="M27.877 29.5037L18.5178 18.0087C17.7383 17.0534 16.6005 16.5036 15.3951 16.5036C14.1897 16.5036 13.0519 17.0511 12.2724 18.0087L2.9132 29.5037L0 27.1313L9.35917 15.6362C10.8552 13.8 13.0542 12.7478 15.3951 12.7478C17.736 12.7478 19.9372 13.8 21.431 15.6362L30.7902 27.1313L27.877 29.5037Z" fill="#E0E0E0"/>
<path d="M15.6091 31.9999C17.1657 31.9999 18.4277 30.738 18.4277 29.1814C18.4277 27.6247 17.1657 26.3628 15.6091 26.3628C14.0524 26.3628 12.7905 27.6247 12.7905 29.1814C12.7905 30.738 14.0524 31.9999 15.6091 31.9999Z" fill="#00AEEF"/>
</svg>
