<?xml version="1.0" encoding="utf-8"?>
<!-- Generator: Adobe Illustrator 28.0.0, SVG Export Plug-In . SVG Version: 6.00 Build 0)  -->
<svg version="1.1" id="Layer_1" xmlns="http://www.w3.org/2000/svg" xmlns:xlink="http://www.w3.org/1999/xlink" x="0px" y="0px"
	 width="38px" height="25px" viewBox="0 0 38 25" style="enable-background:new 0 0 38 25;" xml:space="preserve">
<style type="text/css">
	.st0{fill:#FFFFFF;}
	.st1{fill:#D9D9D9;}
	.st2{fill-rule:evenodd;clip-rule:evenodd;}
	.st3{fill:#1434CB;}
	.st4{fill:#FF5F00;}
	.st5{fill:#EB001B;}
	.st6{fill:#F79E1B;}
	.st7{fill-rule:evenodd;clip-rule:evenodd;fill:#3C4043;}
	.st8{fill:#4285F4;}
	.st9{fill:#34A853;}
	.st10{fill:#FBBC04;}
	.st11{fill:#EA4335;}
	.st12{fill:#5A31F4;}
</style>
<g>
	<path class="st0" d="M4.37315,0.5h29.2537c2.20914,0,4,1.79086,4,4v16c0,2.20914-1.79086,4-4,4H4.37315c-2.20914,0-4-1.79086-4-4
		v-16C0.37315,2.29086,2.16401,0.5,4.37315,0.5z"/>
	<path class="st4" d="M21.67615,7.57169h-5.4851v9.85681h5.4851V7.57169z"/>
	<path class="st5" d="M16.53935,12.5001c-0.0009-0.9493,0.2142-1.8863,0.62901-2.74018
		c0.41489-0.85386,1.0185-1.60215,1.7652-2.18823c-0.9247-0.72688-2.0353-1.17892-3.2048-1.30444
		c-1.1695-0.12553-2.3508,0.08052-3.4087,0.59459c-1.058,0.51408-1.95,1.31544-2.574,2.31248
		c-0.624,0.99705-0.955,2.14958-0.955,3.32578s0.331,2.3287,0.955,3.3258c0.624,0.997,1.516,1.7984,2.574,2.3125
		c1.0579,0.514,2.2392,0.7201,3.4087,0.5946c1.1695-0.1256,2.28011-0.5776,3.2048-1.3045
		c-0.7467-0.5861-1.3503-1.3344-1.7651-2.1882C16.75355,14.3864,16.53845,13.4494,16.53935,12.5001z"/>
	<path class="st6" d="M29.07575,12.5001c0.00011,1.1762-0.3308,2.3287-0.9548,3.3258c-0.624,0.997-1.516,1.7984-2.5739,2.3124
		c-1.0579,0.5141-2.23911,0.7202-3.4086,0.5947c-1.1695-0.1256-2.28011-0.5776-3.2049-1.3045
		c0.7461-0.5867,1.3493-1.3351,1.764-2.1888c0.4148-0.8537,0.6303-1.7905,0.6303-2.7396c0-0.9491-0.2155-1.8859-0.6303-2.7396
		c-0.4147-0.85373-1.0179-1.60214-1.764-2.18881c0.9248-0.72688,2.0354-1.17892,3.2049-1.30444
		c1.16949-0.12553,2.3507,0.08053,3.4086,0.59461s1.9499,1.31544,2.5739,2.31248
		C28.74495,10.17139,29.07586,11.3239,29.07575,12.5001z"/>
	<path class="st6" d="M28.47775,16.3845v-0.2018h0.08131v-0.0411h-0.20721v0.0411h0.08141v0.2018H28.47775z M28.88005,16.3845
		v-0.2433h-0.0635l-0.0731,0.1674l-0.0731-0.1674h-0.0635v0.2433h0.0448V16.201l0.0685,0.1582h0.0466l0.0685-0.1586v0.1839H28.88005
		z"/>
</g>
</svg>
