<?xml version="1.0" encoding="utf-8"?>
<!-- Generator: Adobe Illustrator 28.0.0, SVG Export Plug-In . SVG Version: 6.00 Build 0)  -->
<svg version="1.1" id="Layer_1" xmlns="http://www.w3.org/2000/svg" xmlns:xlink="http://www.w3.org/1999/xlink" x="0px" y="0px"
	 width="38px" height="25px" viewBox="0 0 38 25" style="enable-background:new 0 0 38 25;" xml:space="preserve">
<style type="text/css">
	.st0{fill:#FFFFFF;}
	.st1{fill:#D9D9D9;}
	.st2{fill-rule:evenodd;clip-rule:evenodd;}
	.st3{fill:#1434CB;}
	.st4{fill:#FF5F00;}
	.st5{fill:#EB001B;}
	.st6{fill:#F79E1B;}
	.st7{fill-rule:evenodd;clip-rule:evenodd;fill:#3C4043;}
	.st8{fill:#4285F4;}
	.st9{fill:#34A853;}
	.st10{fill:#FBBC04;}
	.st11{fill:#EA4335;}
	.st12{fill:#5A31F4;}
</style>
<g>
	<path class="st0" d="M3.37479,24.24767c-1.51562,0-2.74902-1.16064-2.74902-2.58691V3.33898
		c0-1.42627,1.2334-2.58643,2.74902-2.58643h31.25049c1.51562,0,2.74902,1.16016,2.74902,2.58643v18.32178
		c0,1.42627-1.2334,2.58691-2.74902,2.58691H3.37479z"/>
	<path class="st1" d="M34.62529,1.0053c1.37644,0,2.49626,1.04691,2.49626,2.33374v18.32191
		c0,1.28683-1.11982,2.33374-2.49626,2.33374H3.37471c-1.37644,0-2.49626-1.04691-2.49626-2.33374V3.33904
		c0-1.28683,1.11982-2.33374,2.49626-2.33374H34.62529 M34.62529,0.5H3.37471c-1.65772,0-3.00156,1.27108-3.00156,2.83904v18.32191
		c0,1.56796,1.34384,2.83904,3.00156,2.83904h31.25058c1.65771,0,3.00156-1.27108,3.00156-2.83904V3.33904
		C37.62685,1.77108,36.283,0.5,34.62529,0.5L34.62529,0.5z"/>
</g>
<path class="st2" d="M9.81296,9.22391c0.471,0.03965,0.941-0.2379,1.234-0.5898c0.289-0.36181,0.48-0.84753,0.431-1.34316
	c-0.416,0.01983-0.93,0.27755-1.224,0.63936C9.98496,8.24256,9.75496,8.7481,9.81296,9.22391z M15.40496,15.60765v-7.7269h2.864
	c1.479,0,2.512,1.03091,2.512,2.5376c0,1.5067-1.053,2.5476-2.551,2.5476h-1.64v2.6417H15.40496z M11.47296,9.31807
	c-0.41399-0.02412-0.792,0.12607-1.097,0.24738c-0.196,0.07806-0.363,0.14417-0.489,0.14417c-0.142,0-0.31499-0.06964-0.51-0.14783
	l0,0l0,0l0,0c-0.255-0.10246-0.546-0.2196-0.851-0.21398c-0.7,0.00991-1.352,0.41137-1.709,1.05074
	c-0.735,1.2787-0.191,3.172,0.519,4.2129c0.348,0.5154,0.764,1.0804,1.312,1.0606c0.241-0.0092,0.415-0.0838,0.595-0.1609
	c0.206-0.0888,0.421-0.1811,0.756-0.1811c0.32401,0,0.53,0.0899,0.72701,0.1761c0.187,0.0821,0.367,0.1608,0.63499,0.156
	c0.568-0.0099,0.925-0.5155,1.273-1.0309c0.375-0.5532,0.54-1.0932,0.565-1.1751l0.003-0.0095
	c-0.001-0.0006-0.006-0.0027-0.014-0.0065c-0.125-0.0581-1.084-0.5023-1.093-1.6935c-0.009-0.9998,0.76-1.50634,0.882-1.58609
	c0.007-0.00485,0.012-0.00812,0.014-0.00983C12.50096,9.4172,11.73796,9.3379,11.47296,9.31807z M22.94496,15.66705
	c0.745,0,1.43501-0.3816,1.748-0.9863h0.025v0.9269h1.096v-3.8461c0-1.1152-0.881-1.83385-2.237-1.83385
	c-1.258,0-2.189,0.72855-2.223,1.72975h1.067c0.089-0.4758,0.52399-0.7881,1.12199-0.7881c0.72401,0,1.131,0.342,1.131,0.9715
	v0.4262l-1.479,0.0892c-1.376,0.0843-2.12,0.6543-2.12,1.6455C21.07496,15.00295,21.84396,15.66705,22.94496,15.66705z
	 M23.26296,14.75015c-0.631,0-1.033-0.3073-1.033-0.7781c0-0.4857,0.387-0.7682,1.126-0.8128l1.318-0.0843v0.4362
	C24.67396,14.23475,24.06596,14.75015,23.26296,14.75015z M29.45196,15.90995c-0.475,1.3531-1.018,1.7991-2.174,1.7991
	c-0.088,0-0.381-0.0099-0.45-0.0297v-0.9268c0.073,0.0099,0.255,0.0198,0.348,0.0198c0.524,0,0.817-0.223,0.998-0.8029l0.108-0.342
	l-2.007-5.6254h1.238l1.396,4.5648h0.024l1.396-4.5648h1.204L29.45196,15.90995z M16.58996,8.89183h1.366
	c1.028,0,1.616,0.55511,1.616,1.53152c0,0.9764-0.58801,1.5364-1.621,1.5364h-1.361V8.89183z"/>
</svg>
