<?xml version="1.0" encoding="utf-8"?>
<!-- Generator: Adobe Illustrator 28.0.0, SVG Export Plug-In . SVG Version: 6.00 Build 0)  -->
<svg version="1.1" id="Layer_1" xmlns="http://www.w3.org/2000/svg" xmlns:xlink="http://www.w3.org/1999/xlink" x="0px" y="0px"
	 width="38px" height="25px" viewBox="0 0 38 25" style="enable-background:new 0 0 38 25;" xml:space="preserve">
<style type="text/css">
	.st0{fill:#FFFFFF;}
	.st1{fill:#D9D9D9;}
	.st2{fill-rule:evenodd;clip-rule:evenodd;}
	.st3{fill:#1434CB;}
	.st4{fill:#FF5F00;}
	.st5{fill:#EB001B;}
	.st6{fill:#F79E1B;}
	.st7{fill-rule:evenodd;clip-rule:evenodd;fill:#3C4043;}
	.st8{fill:#4285F4;}
	.st9{fill:#34A853;}
	.st10{fill:#FBBC04;}
	.st11{fill:#EA4335;}
	.st12{fill:#5A31F4;}
</style>
<g>
	<path class="st0" d="M4.27275,0.5h29.4545c2.20914,0,4,1.79086,4,4v16c0,2.20914-1.79086,4-4,4H4.27275c-2.20914,0-4-1.79086-4-4
		v-16C0.27275,2.29086,2.06361,0.5,4.27275,0.5z"/>
	<path class="st3" d="M18.77105,8.58903l-1.747,8.12257h-2.1125l1.7473-8.12257H18.77105z M27.65915,13.8338l1.1122-3.0503
		l0.6399,3.0503H27.65915z M30.01615,16.7116h1.954l-1.7051-8.12257h-1.8037c-0.4052,0-0.7472,0.23446-0.8994,0.59592
		l-3.1694,7.52665h2.2185l0.4404-1.2129h2.7103L30.01615,16.7116z M24.50265,14.0596c0.0091-2.1439-2.9807-2.2619-2.96-3.2195
		c0.0062-0.2918,0.2856-0.60136,0.8959-0.6808c0.3031-0.03933,1.1367-0.06941,2.0832,0.3638l0.3707-1.72249
		c-0.5084-0.18356-1.1626-0.36018-1.9763-0.36018c-2.0879,0-3.5576,1.10418-3.57,2.68527
		c-0.0132,1.1692,1.0491,1.8217,1.8496,2.2104c0.823,0.3982,1.0996,0.6533,1.0959,1.0093
		c-0.0054,0.5453-0.6565,0.7854-1.2639,0.7949c-1.0623,0.0167-1.6788-0.2851-2.1701-0.5128l-0.3828,1.7798
		c0.4934,0.2254,1.4045,0.4213,2.3498,0.4313C23.04355,16.8386,24.49545,15.7481,24.50265,14.0596z M15.75235,8.58903
		l-3.4227,8.12257h-2.2334l-1.6842-6.48237C8.3097,9.82998,8.22078,9.68395,7.90984,9.51556
		C7.40246,9.24177,6.56372,8.98442,5.82579,8.82503l0.0504-0.236h3.59456c0.45801,0,0.8703,0.30336,0.9742,0.82807l0.8896,4.7006
		l2.1983-5.52867H15.75235z"/>
</g>
</svg>
