<svg width="22" height="21" viewBox="0 0 22 21" fill="none" xmlns="http://www.w3.org/2000/svg">
<g clip-path="url(#clip0_14741_5407)">
<path d="M22 19.3679L16.3917 14.0146C17.6088 12.5019 18.2693 10.6587 18.2693 8.71943C18.2693 6.38997 17.319 4.20029 15.594 2.55366C13.869 0.90703 11.575 0 9.13464 0C6.69426 0 4.4003 0.90703 2.67526 2.55366C0.950222 4.20029 0 6.39143 0 8.71943C0 11.0474 0.950222 13.2386 2.67526 14.8852C4.4003 16.5318 6.69426 17.4389 9.13464 17.4389C11.1663 17.4389 13.0957 16.8084 14.6819 15.6466L20.2902 21L22 19.3679ZM4.38505 13.2531C3.11606 12.0418 2.4175 10.4316 2.4175 8.71943C2.4175 7.00728 3.11606 5.39705 4.38505 4.18573C5.65405 2.97442 7.34096 2.30761 9.13464 2.30761C10.9283 2.30761 12.6152 2.97442 13.8842 4.18573C15.1532 5.39705 15.8518 7.00728 15.8518 8.71943C15.8518 10.4316 15.1532 12.0418 13.8842 13.2531C12.6152 14.4644 10.9283 15.1312 9.13464 15.1312C7.34096 15.1312 5.65405 14.4644 4.38505 13.2531Z" fill="white"/>
</g>
<defs>
<clipPath id="clip0_14741_5407">
<rect width="22" height="21" fill="white"/>
</clipPath>
</defs>
</svg>
