<svg width="55" height="32" viewBox="0 0 55 32" fill="none" xmlns="http://www.w3.org/2000/svg">
<path d="M46.0123 18.1544C44.4798 16.2708 42.2243 15.1936 39.82 15.1936C37.7132 15.1936 35.7166 16.0268 34.2228 17.5027L30.173 12.5274C28.0841 9.96244 25.0102 8.4895 21.74 8.4895C18.4698 8.4895 15.3959 9.96244 13.307 12.5274L0 28.8667L3.8475 32L17.1516 15.6578C18.2942 14.2533 19.9665 13.4499 21.737 13.4499C23.5075 13.4499 25.1798 14.2563 26.3225 15.6578L30.9913 21.3919L24.9061 28.8667L28.7536 32L37.4752 21.2877C38.0703 20.5557 38.9005 20.154 39.82 20.154C40.7394 20.154 41.5696 20.5557 42.1618 21.2877L50.8834 32L54.7309 28.8667L46.0093 18.1544H46.0123Z" fill="#E0E0E0"/>
<path d="M35.6302 7.44504C37.6861 7.44504 39.3528 5.77842 39.3528 3.72252C39.3528 1.66663 37.6861 0 35.6302 0C33.5743 0 31.9077 1.66663 31.9077 3.72252C31.9077 5.77842 33.5743 7.44504 35.6302 7.44504Z" fill="#00AEEF"/>
</svg>
